<?xml version="1.0" standalone="no"?><!DOCTYPE svg PUBLIC "-//W3C//DTD SVG 1.1//EN" "http://www.w3.org/Graphics/SVG/1.1/DTD/svg11.dtd"><svg t="1782191793384" class="icon" viewBox="0 0 1024 1024" version="1.1" xmlns="http://www.w3.org/2000/svg" p-id="844" xmlns:xlink="http://www.w3.org/1999/xlink" width="200" height="200"><path d="M518.712889 623.957333c34.512593 0 68.664889 6.940444 100.54163 20.423111a262.542222 262.542222 0 0 1 85.238518 58.197334 268.818963 268.818963 0 0 1 56.945778 87.04c8.722963 21.485037-8.533333 43.083852-31.725037 43.083852H307.693037c-23.172741 0-40.429037-21.617778-31.725037-43.064889a268.837926 268.837926 0 0 1 56.964741-87.058963 262.447407 262.447407 0 0 1 85.219555-58.197334 258.010074 258.010074 0 0 1 100.560593-20.423111z m-2.578963-424.429037a263.205926 263.205926 0 0 1 211.911111 419.953778 28.48237 28.48237 0 0 1-45.738667-33.924741 206.241185 206.241185 0 1 0-330.808889 0.663704 28.444444 28.444444 0 1 1-45.568 34.095407 263.168 263.168 0 0 1 210.204445-420.788148z m2.578963 139.813926a123.335111 123.335111 0 1 1-0.018963 246.670222 123.335111 123.335111 0 0 1 0-246.670222z" fill="#000000" p-id="845"></path></svg>