<?xml version="1.0" standalone="no"?><!DOCTYPE svg PUBLIC "-//W3C//DTD SVG 1.1//EN" "http://www.w3.org/Graphics/SVG/1.1/DTD/svg11.dtd"><svg t="1782191760832" class="icon" viewBox="0 0 1024 1024" version="1.1" xmlns="http://www.w3.org/2000/svg" p-id="7403" xmlns:xlink="http://www.w3.org/1999/xlink" width="200" height="200"><path d="M518.712889 623.976296c34.512593 0 68.645926 6.940444 100.54163 20.423111a262.447407 262.447407 0 0 1 85.238518 58.159408 268.894815 268.894815 0 0 1 56.964741 87.077926c8.704 21.466074-8.590222 43.045926-31.744 43.045926H307.693037c-23.172741 0-40.429037-21.579852-31.725037-43.045926a268.818963 268.818963 0 0 1 56.945778-87.077926 262.447407 262.447407 0 0 1 85.238518-58.159408 258.010074 258.010074 0 0 1 100.560593-20.423111zM304.45037 561.872593a38.191407 38.191407 0 0 1 53.418667 7.831703l0.32237 0.436148a38.172444 38.172444 0 0 1-61.136592 45.738667l-0.436148-0.606815a38.172444 38.172444 0 0 1 7.831703-53.418666zM675.934815 569.078519a38.191407 38.191407 0 0 1 61.44 45.302518l-0.436148 0.606815a38.172444 38.172444 0 0 1-61.326223-45.473185l0.322371-0.455111zM518.712889 339.342222a123.354074 123.354074 0 1 1-0.037926 246.670222 123.354074 123.354074 0 0 1 0.037926-246.670222zM278.186667 434.024296a38.172444 38.172444 0 0 1 41.320296 34.721185l0.056889 0.530963 0.037926 0.549926a38.172444 38.172444 0 0 1-76.022519 7.016297l-0.075852-0.758519-0.056888-0.720592a38.172444 38.172444 0 0 1 34.721185-41.33926zM755.105185 433.057185a38.191407 38.191407 0 0 1 34.891852 41.206519l-0.075852 0.758518-0.056889 0.720593a38.191407 38.191407 0 0 1-76.060444-6.712889l0.056889-0.549926 0.037926-0.530963a38.172444 38.172444 0 0 1 41.206518-34.891852zM271.663407 328.362667a38.191407 38.191407 0 0 1 68.209778 34.322963l-0.246518 0.474074-0.246519 0.474074a38.172444 38.172444 0 1 1-68.399407-33.924741l0.341333-0.663704 0.341333-0.682666zM709.859556 310.632296a38.172444 38.172444 0 0 1 51.313777 16.76326l0.360297 0.663703 0.32237 0.663704a38.172444 38.172444 0 0 1-68.266667 34.209185l-0.474074-0.948148a38.191407 38.191407 0 0 1 16.744297-51.351704zM372.849778 218.074074a38.191407 38.191407 0 0 1 40.011852 65.005037l-0.436149 0.303408-0.455111 0.265481a38.172444 38.172444 0 1 1-40.391111-64.777481l0.625778-0.398223 0.644741-0.379259zM607.080296 230.21037a38.172444 38.172444 0 0 1 52.470519-12.705185l0.644741 0.379259 0.625777 0.417186a38.172444 38.172444 0 1 1-40.125629 64.948148l-0.474074-0.303408-0.455111-0.265481a38.172444 38.172444 0 0 1-12.686223-52.470519zM516.873481 177.34163a38.172444 38.172444 0 0 1-0.056888 76.344889h-1.080889a38.172444 38.172444 0 1 1-0.360297-76.325926l0.758519-0.018963h0.758518z" fill="#000000" p-id="7404"></path></svg>