<?xml version="1.0" standalone="no"?><!DOCTYPE svg PUBLIC "-//W3C//DTD SVG 1.1//EN" "http://www.w3.org/Graphics/SVG/1.1/DTD/svg11.dtd"><svg t="1782191847024" class="icon" viewBox="0 0 1024 1024" version="1.1" xmlns="http://www.w3.org/2000/svg" p-id="5130" xmlns:xlink="http://www.w3.org/1999/xlink" width="200" height="200"><path d="M714.4448 302.6944c-16.4864-9.5232-34.6112-4.608-44.1344 11.8784-9.4208 16.5888-4.5056 34.816 11.9808 44.4416 46.1824 26.7264 62.464 86.8352 36.0448 133.12-9.4208 16.5888-4.5056 34.816 11.9808 44.4416 16.4864 9.5232 34.7136 4.608 44.1344-11.8784 42.7008-78.848 15.872-178.0736-60.0064-222.0032z m61.6448-111.9232c-16.4864-9.5232-34.6112-4.608-44.1344 11.8784-9.4208 16.5888-4.5056 34.816 11.9808 44.3392 108.9536 62.976 146.3296 201.4208 83.3536 308.1216-9.4208 16.5888-4.5056 34.816 11.9808 44.4416 16.4864 9.5232 34.6112 4.608 44.1344-11.8784 79.2576-139.1616 31.232-316.7232-107.3152-396.9024zM412.4672 526.2336c107.7248-0.4096 194.7648-88.6784 194.4576-197.3248v-1.3312c-0.7168-108.9536-89.088-196.7104-197.2224-195.8912-108.1344 0.7168-195.2768 89.7024-194.4576 198.5536 0.7168 108.9536 89.088 196.7104 197.2224 195.9936z m79.36 29.9008h-144.384C211.7632 556.7488 102.0928 667.8528 102.4 804.6592V819.2c0 73.216 108.032 73.216 245.0432 73.216h144.384c131.4816 0 245.0432 0 244.9408-73.216v-14.5408c0.4096-136.8064-109.2608-248.0128-244.9408-248.5248z" p-id="5131"></path></svg>